<svg version="1.1" id="Layer_1" xmlns:x="ns_extend;" xmlns:i="ns_ai;" xmlns:graph="ns_graphs;" xmlns="http://www.w3.org/2000/svg" xmlns:xlink="http://www.w3.org/1999/xlink" x="0px" y="0px" viewBox="0 0 292.7 95" style="enable-background:new 0 0 292.7 95;" xml:space="preserve">
 <style type="text/css">
  .st0{fill-rule:evenodd;clip-rule:evenodd;fill:#5F51A1;}
	.st1{fill-rule:evenodd;clip-rule:evenodd;fill:#FFB003;}
	.st2{filter:url(#Adobe_OpacityMaskFilter);}
	.st3{fill-rule:evenodd;clip-rule:evenodd;fill:#FFFFFF;}
	.st4{mask:url(#prefix__b_1_);fill-rule:evenodd;clip-rule:evenodd;fill:#FF434F;}
	.st5{filter:url(#Adobe_OpacityMaskFilter_1_);}
	.st6{mask:url(#prefix__d_1_);fill-rule:evenodd;clip-rule:evenodd;fill:#5F51A1;}
 </style>
 <metadata>
  <sfw xmlns="ns_sfw;">
   <slices>
   </slices>
   <sliceSourceBounds bottomLeftOrigin="true" height="95" width="292.7" x="-140.8" y="0">
   </sliceSourceBounds>
  </sfw>
 </metadata>
 <g>
  <path class="st0" d="M125.7,33.3c0-4.1-2.4-6.6-6.6-6.6c-2.2,0-4.4,0.3-6.6,0.8v19.7c1.9,1.6,4.1,2.4,6.6,2.4
		c4.2,0,6.6-2.4,6.6-6.6C125.7,43,125.7,33.3,125.7,33.3z M105.5,26.2c0-1.9,1.2-3.6,3-4.1c3.4-1.1,6.9-1.8,10.6-1.8
		c4,0,7.4,1.3,9.8,3.8c2.4,2.4,3.8,5.8,3.8,9.8v8.5c0,4-1.3,7.5-3.7,10c-2.4,2.5-5.4,3.7-9.4,3.7c-2.2,0-5-0.8-7.1-1.8V67
		c0,2-1.6,3.5-3.5,3.5c-2,0-3.5-1.6-3.5-3.5L105.5,26.2L105.5,26.2z M158.8,40.6h-7c-5.9,0-6.2,3.2-6.2,4.3c0,1.2,0.3,4.6,6.2,4.6
		c2.3,0,4.8-0.3,7-0.9L158.8,40.6L158.8,40.6z M165.8,50.1c0,1.9-1.2,3.5-3,4.1c-3.3,1.2-7.2,1.8-11,1.8c-4.1,0-7.4-1-9.7-3
		c-2.3-2-3.5-4.7-3.5-8.1c0-3.3,1.2-5.9,3.5-7.8c2.3-2,5.6-3,9.7-3h7v-2.4c0-2.9-2.1-5.1-5.6-5.1c-3.2,0-5,0.4-7.3,1.8
		c-0.5,0.3-1.3,0.6-1.9,0.6c-1.8,0-3.3-1.4-3.3-3c0-1.2,0.5-2.4,1.7-3.1c3.7-2.1,6.8-2.7,11.7-2.7c7.6,0,11.7,5.5,11.7,11.5V50.1
		L165.8,50.1z M184.9,44l-7.2,10.6c-0.7,1-1.8,1.5-2.8,1.5c-1.8,0-3.5-1.6-3.5-3.5c0-0.7,0.2-1.4,0.6-2l8.9-12.5l-8.7-12.2
		c-0.4-0.6-0.6-1.3-0.6-2c0-1.8,1.6-3.5,3.5-3.5c1.1,0,2.2,0.5,2.8,1.5l7,10.2l7-10.2c0.7-1,1.8-1.5,2.9-1.5c1.9,0,3.5,1.6,3.5,3.5
		c0,0.7-0.2,1.4-0.6,2L189,38l8.9,12.5c0.5,0.6,0.7,1.3,0.7,2c0,1.9-1.6,3.5-3.6,3.5c-1.1,0-2.2-0.5-2.8-1.5L184.9,44z M223.3,35
		c0-5.6-2.3-8.3-6.6-8.3c-4.3,0-6.6,2.6-6.6,8.3L223.3,35L223.3,35z M210.1,41.5c0,2.8,0.5,4.6,1.4,5.8c1.2,1.5,2.9,2.3,5.2,2.3
		c2.6,0,5-0.7,7.3-1.8c0.5-0.2,0.9-0.3,1.4-0.3c1.7,0,3.3,1.4,3.3,3.2c0,1.3-0.5,2.4-1.8,3c-3.3,1.6-6.7,2.3-10.3,2.3
		c-3.9,0-7.3-1.3-9.8-3.8c-2.4-2.5-3.7-5.8-3.7-9.8v-8.5c0-3.9,1.3-7.3,3.7-9.8c2.5-2.5,5.9-3.8,9.8-3.8c4,0,7.4,1.3,9.8,3.8
		c2.4,2.4,3.8,5.8,3.8,9.8V37c0,2.4-2,4.4-4.4,4.4C225.9,41.5,210.1,41.5,210.1,41.5z M238,10.7c0-2,1.6-3.5,3.5-3.5
		c1.9,0,3.5,1.6,3.5,3.5v41.9c0,2-1.6,3.5-3.5,3.5c-2,0-3.5-1.6-3.5-3.5V10.7z">
  </path>
  <path class="st1" d="M72.1,21C72,21,72,20.9,71.9,20.8L54.7,3.6c-1-1-2.7-1-3.7,0c-1,1-1,2.7,0,3.7l7.3,7.3v4.7H53v5.3h12.9
		c3.9,0,7.1,3.2,7.1,7.1v33.5c0,1.2-0.3,2.2-0.8,3.2L27.1,23.3c-1-1-2.7-1-3.8,0c-1,1-1,2.7,0,3.7l44.9,44.9
		c-0.7,0.2-1.5,0.4-2.3,0.4H32.4c-3.9,0-7.1-3.2-7.1-7.1V53H20v13.1c0,0.2,0,0.5,0.1,0.7c0.1,0.6,0.2,1.2,0.4,1.7l0.2,2.5l2.1,1.9
		c0,0,0,0,0,0c2.3,2.8,5.7,4.6,9.6,4.6h33.5c3.2,0,6-1.2,8.2-3.2c0.1-0.1,0.1-0.1,0.2-0.2l0.1-0.1c2.4-2.3,3.9-5.5,3.9-9V31.8
		C78.3,27.2,75.8,23.2,72.1,21">
  </path>
  <g transform="translate(0 .668)">
   <defs>
    <filter id="Adobe_OpacityMaskFilter" filterUnits="userSpaceOnUse" x="0" y="-0.7" width="58.3" height="71.9">
     <feColorMatrix type="matrix" values="1 0 0 0 0  0 1 0 0 0  0 0 1 0 0  0 0 0 1 0">
     </feColorMatrix>
    </filter>
   </defs>
   <mask maskUnits="userSpaceOnUse" x="0" y="-0.7" width="58.3" height="71.9" id="prefix__b_1_">
    <g class="st2">
     <path id="prefix__a_1_" class="st3" d="M0-0.7h58.3v71.9H0V-0.7z">
     </path>
    </g>
   </mask>
   <path class="st4" d="M53,18.7H32.4c-2.6,0-5.1,0.8-7.1,2.2L9.6,5.2c0.9-0.4,1.8-0.6,2.8-0.6h33.5c3.9,0,7.1,3.2,7.1,7.1V18.7z
			 M53,45.2c0,3.9-3.2,7.1-7.1,7.1H25.3V31.1c0-1.8,0.7-3.4,1.7-4.7l0,0c0,0,0,0,0,0c1.3-1.5,3.2-2.4,5.3-2.4H53V45.2L53,45.2z
			 M20,31.1v21.2h-7.6c-3.9,0-7.1-3.2-7.1-7.1V11.7c0-1,0.2-1.9,0.6-2.8l15.9,15.9C20.7,26.7,20,28.8,20,31.1L20,31.1z M45.9-0.7
			H12.4c-3.2,0-6.1,1.2-8.3,3.2C3.9,2.6,3.8,2.8,3.6,2.9C3.4,3.1,3.3,3.3,3.2,3.5C1.2,5.6,0,8.5,0,11.7v33.5c0,3.2,1.2,6.1,3.2,8.3
			c0.1,0.2,0.3,0.4,0.4,0.6l17.3,16.6v0c0.5,0.4,1.1,0.7,1.8,0.7c1.5,0,2.7-1.2,2.7-2.6v-11h20.5c6.8,0,12.4-5.6,12.4-12.4V11.7
			C58.3,4.9,52.7-0.7,45.9-0.7z">
   </path>
  </g>
  <path class="st0" d="M105.5,81.6h2.5l4,6.3l4-6.3h2.5v13.2h-2.3v-9.5l-4.2,6.2h-0.1l-4.1-6.2v9.4h-2.3V81.6z M127.9,90.6
		c-0.6-0.2-1.4-0.4-2.3-0.4c-1.4,0-2.3,0.6-2.3,1.6v0c0,0.9,0.8,1.5,1.9,1.5c1.5,0,2.6-0.9,2.6-2.1L127.9,90.6L127.9,90.6z
		 M127.8,94.8v-1.2c-0.7,0.8-1.7,1.4-3.2,1.4c-1.9,0-3.6-1.1-3.6-3.1v0c0-2.2,1.7-3.3,4-3.3c1.2,0,2,0.2,2.8,0.4v-0.2
		c0-1.4-0.9-2.1-2.5-2.1c-1.1,0-1.9,0.2-2.8,0.6l-0.6-1.8c1.1-0.5,2.2-0.8,3.8-0.8c2.9,0,4.4,1.5,4.4,4.2v5.9L127.8,94.8L127.8,94.8
		z M132.8,81h2.3v8.2l4.1-4.4h2.8l-4,4.1l4.1,5.9h-2.6l-3-4.3l-1.4,1.5v2.8h-2.3V81z M150.1,89.1c-0.2-1.5-1-2.6-2.5-2.6
		c-1.4,0-2.4,1.1-2.6,2.6C145,89.1,150.1,89.1,150.1,89.1z M142.7,89.8L142.7,89.8c0-2.9,2-5.2,4.9-5.2c3.2,0,4.8,2.5,4.8,5.4
		c0,0.2,0,0.4,0,0.6H145c0.2,1.6,1.4,2.5,2.9,2.5c1.1,0,1.9-0.4,2.7-1.2l1.3,1.2c-0.9,1.1-2.2,1.9-4.1,1.9
		C145,95,142.7,92.9,142.7,89.8L142.7,89.8z M160.8,92v-5.2h-1.3v-2h1.3v-2.7h2.3v2.7h2.7v2h-2.7v4.9c0,0.9,0.5,1.2,1.2,1.2
		c0.5,0,1-0.1,1.4-0.3v1.9c-0.6,0.3-1.2,0.5-2.1,0.5C162,94.9,160.8,94.2,160.8,92 M168,81h2.3v5.4c0.6-0.9,1.6-1.8,3.1-1.8
		c2.2,0,3.6,1.5,3.6,3.8v6.3h-2.3v-5.7c0-1.5-0.8-2.4-2.1-2.4c-1.3,0-2.2,0.9-2.2,2.5v5.6H168C168,94.8,168,81,168,81z M186.5,89.1
		c-0.1-1.5-1-2.6-2.5-2.6c-1.4,0-2.4,1.1-2.6,2.6H186.5z M179.1,89.8L179.1,89.8c0-2.9,2-5.2,4.9-5.2c3.2,0,4.8,2.5,4.8,5.4
		c0,0.2,0,0.4,0,0.6h-7.3c0.2,1.6,1.4,2.5,2.9,2.5c1.1,0,1.9-0.4,2.7-1.2l1.3,1.2c-0.9,1.1-2.2,1.9-4.1,1.9
		C181.4,95,179.1,92.9,179.1,89.8L179.1,89.8z M197,81.6h9.8v2.1h-7.5v3.6h6.7v2.1h-6.7v5.4H197V81.6z">
  </path>
  <defs>
   <filter id="Adobe_OpacityMaskFilter_1_" filterUnits="userSpaceOnUse" x="208.9" y="81.1" width="83.8" height="13.9">
    <feColorMatrix type="matrix" values="1 0 0 0 0  0 1 0 0 0  0 0 1 0 0  0 0 0 1 0">
    </feColorMatrix>
   </filter>
  </defs>
  <mask maskUnits="userSpaceOnUse" x="208.9" y="81.1" width="83.8" height="13.9" id="prefix__d_1_">
   <g class="st5">
    <path id="prefix__c_1_" class="st3" d="M0,95h292.7V0H0V95z">
    </path>
   </g>
  </mask>
  <path class="st6" d="M209,94.8h2.3v-10H209V94.8z M208.9,83.3h2.5v-2.2h-2.5V83.3z M214.2,84.8h2.3V87c0.6-1.5,1.8-2.5,3.5-2.4V87
		h-0.1c-2,0-3.4,1.3-3.4,3.9v3.8h-2.3C214.2,94.8,214.2,84.8,214.2,84.8z M221.1,93.5l1-1.5c1.1,0.8,2.2,1.2,3.3,1.2
		c1,0,1.5-0.4,1.5-1.1v0c0-0.8-1.1-1-2.2-1.4c-1.5-0.4-3.1-1-3.1-2.9v0c0-1.9,1.6-3,3.5-3c1.2,0,2.6,0.4,3.7,1.1l-0.9,1.6
		c-1-0.6-2-0.9-2.8-0.9c-0.9,0-1.4,0.4-1.4,1v0c0,0.7,1.1,1,2.2,1.4c1.5,0.5,3.1,1.1,3.1,2.9v0c0,2.1-1.6,3.1-3.7,3.1
		C223.9,95,222.4,94.4,221.1,93.5 M231.8,92v-5.2h-1.3v-2h1.3v-2.7h2.3v2.7h2.7v2h-2.7v4.9c0,0.9,0.5,1.2,1.2,1.2
		c0.5,0,1-0.1,1.4-0.3v1.9c-0.6,0.3-1.2,0.5-2.1,0.5C233,94.9,231.8,94.2,231.8,92 M245,81.6h2.5l4,6.3l4-6.3h2.5v13.2h-2.3v-9.5
		l-4.2,6.2h-0.1l-4.1-6.2v9.4H245V81.6z M268.9,89.8L268.9,89.8c0-1.8-1.3-3.2-3.1-3.2c-1.8,0-3,1.4-3,3.2v0c0,1.7,1.3,3.2,3,3.2
		C267.7,93,268.9,91.6,268.9,89.8 M260.5,89.8L260.5,89.8c0-2.9,2.3-5.2,5.3-5.2c3.1,0,5.3,2.3,5.3,5.2v0c0,2.8-2.3,5.2-5.3,5.2
		C262.8,95,260.5,92.7,260.5,89.8 M272,84.8h2.5l2.7,7.3l2.7-7.3h2.4l-4.1,10h-2.1L272,84.8z M290.4,89.1c-0.2-1.5-1-2.6-2.5-2.6
		c-1.4,0-2.4,1.1-2.6,2.6H290.4z M283.1,89.8L283.1,89.8c0-2.9,2-5.2,4.9-5.2c3.2,0,4.8,2.5,4.8,5.4c0,0.2,0,0.4,0,0.6h-7.3
		c0.2,1.6,1.4,2.5,2.9,2.5c1.1,0,1.9-0.4,2.7-1.2l1.3,1.2c-0.9,1.1-2.2,1.9-4.1,1.9C285.3,95,283.1,92.9,283.1,89.8L283.1,89.8z">
  </path>
 </g>
</svg>